<svg xmlns="http://www.w3.org/2000/svg" viewBox="0 0 320 140" width="320" height="140" role="img" aria-label="Zoijs">
  <title>Zoijs</title>
  <defs>
    <linearGradient id="bg" x1="0" y1="0" x2="64" y2="64" gradientUnits="userSpaceOnUse"><stop offset="0" stop-color="#0e2a4d"/><stop offset="1" stop-color="#081226"/></linearGradient>
    <linearGradient id="zblue" x1="20" y1="18" x2="44" y2="46" gradientUnits="userSpaceOnUse"><stop offset="0" stop-color="#5cc8ff"/><stop offset="1" stop-color="#2f8fe6"/></linearGradient>
  </defs>
  <g transform="translate(20 22) scale(1.5)">
    <circle cx="32" cy="32" r="32" fill="url(#bg)"/>
    <circle cx="32" cy="32" r="26" fill="none" stroke="#f59e0b" stroke-width="3" stroke-linecap="round" stroke-dasharray="30 11.3" transform="rotate(-58 32 32)"/>
    <polygon fill="url(#zblue)" points="21,18 43,18 43,24 32,40 43,40 43,46 21,46 21,40 32,24 21,24"/>
    <g fill="#dff1ff"><circle cx="21" cy="18" r="2.4"/><circle cx="43" cy="18" r="2.4"/><circle cx="32" cy="32" r="2.4"/><circle cx="21" cy="46" r="2.4"/><circle cx="43" cy="46" r="2.4"/></g>
  </g>
  <path d="M172.13 66.46L155.54 86.13L172.48 86.13L172.48 96L142.17 96L142.17 86.48L158.41 66.81L142.31 66.81L142.31 56.94L172.13 56.94 M195.34 96.56Q189.60 96.56 185.01 94.11Q180.43 91.66 177.81 87.11Q175.18 82.56 175.18 76.47Q175.18 70.45 177.84 65.86Q180.50 61.28 185.12 58.83Q189.74 56.38 195.48 56.38Q201.22 56.38 205.84 58.83Q210.46 61.28 213.12 65.86Q215.78 70.45 215.78 76.47Q215.78 82.49 213.09 87.08Q210.39 91.66 205.74 94.11Q201.08 96.56 195.34 96.56M195.34 86.20Q198.77 86.20 201.19 83.68Q203.60 81.16 203.60 76.47Q203.60 71.78 201.25 69.26Q198.91 66.74 195.48 66.74Q191.98 66.74 189.67 69.22Q187.36 71.71 187.36 76.47Q187.36 81.16 189.63 83.68Q191.91 86.20 195.34 86.20 M226.67 52.88Q223.52 52.88 221.53 51.02Q219.53 49.17 219.53 46.44Q219.53 43.64 221.53 41.78Q223.52 39.93 226.67 39.93Q229.75 39.93 231.75 41.78Q233.74 43.64 233.74 46.44Q233.74 49.17 231.75 51.02Q229.75 52.88 226.67 52.88M220.65 56.94L232.62 56.94L232.62 96L220.65 96 M274.77 96.56Q269.66 96.56 265.67 94.81Q261.68 93.06 259.37 90.02Q257.06 86.97 256.78 83.19L268.61 83.19Q268.82 85.22 270.50 86.48Q272.18 87.74 274.63 87.74Q276.87 87.74 278.10 86.86Q279.32 85.99 279.32 84.59Q279.32 82.91 277.57 82.11Q275.82 81.30 271.90 80.32Q267.70 79.34 264.90 78.25Q262.10 77.17 260.07 74.83Q258.04 72.48 258.04 68.49Q258.04 65.13 259.90 62.36Q261.75 59.60 265.36 57.99Q268.96 56.38 273.93 56.38Q281.28 56.38 285.52 60.02Q289.75 63.66 290.38 69.68L279.32 69.68Q279.04 67.65 277.54 66.46Q276.03 65.27 273.58 65.27Q271.48 65.27 270.36 66.07Q269.24 66.88 269.24 68.28Q269.24 69.96 271.03 70.80Q272.81 71.64 276.59 72.48Q280.93 73.60 283.66 74.69Q286.39 75.77 288.46 78.19Q290.52 80.60 290.59 84.66Q290.59 88.09 288.67 90.78Q286.74 93.48 283.14 95.02Q279.53 96.56 274.77 96.56" fill="#0b1b34"/>
  <path d="M245.75 52.88Q242.60 52.88 240.61 51.02Q238.61 49.17 238.61 46.44Q238.61 43.64 240.61 41.78Q242.60 39.93 245.75 39.93Q248.83 39.93 250.83 41.78Q252.82 43.64 252.82 46.44Q252.82 49.17 250.83 51.02Q248.83 52.88 245.75 52.88M251.77 56.94L251.77 101.04Q251.77 108.25 248.13 111.44Q244.49 114.62 237.98 114.62L233.29 114.62L233.29 104.47L236.16 104.47Q238.12 104.47 238.96 103.70Q239.80 102.93 239.80 101.18L239.80 56.94" fill="#2f8fe6"/>
</svg>
