<svg xmlns="http://www.w3.org/2000/svg" viewBox="0 0 1280 640" width="1280" height="640" role="img" aria-label="Zoijs — a beginner-friendly, no-build frontend framework">
  <title>Zoijs</title>
  <defs>
    <linearGradient id="page" x1="0" y1="0" x2="1280" y2="640" gradientUnits="userSpaceOnUse"><stop offset="0" stop-color="#0b1f3a"/><stop offset="1" stop-color="#050b18"/></linearGradient>
    <linearGradient id="bg" x1="0" y1="0" x2="64" y2="64" gradientUnits="userSpaceOnUse"><stop offset="0" stop-color="#0e2a4d"/><stop offset="1" stop-color="#081226"/></linearGradient>
    <linearGradient id="zblue" x1="20" y1="18" x2="44" y2="46" gradientUnits="userSpaceOnUse"><stop offset="0" stop-color="#5cc8ff"/><stop offset="1" stop-color="#2f8fe6"/></linearGradient>
  </defs>
  <rect width="1280" height="640" fill="url(#page)"/>
  <g transform="translate(120 188) scale(4)" opacity="0.2">
    <circle cx="32" cy="32" r="32" fill="url(#bg)"/>
    <circle cx="32" cy="32" r="26" fill="none" stroke="#f59e0b" stroke-width="3" stroke-linecap="round" stroke-dasharray="30 11.3" transform="rotate(-58 32 32)"/>
    <polygon fill="url(#zblue)" points="21,18 43,18 43,24 32,40 43,40 43,46 21,46 21,40 32,24 21,24"/>
    <g fill="#dff1ff"><circle cx="21" cy="18" r="2.4"/><circle cx="43" cy="18" r="2.4"/><circle cx="32" cy="32" r="2.4"/><circle cx="21" cy="46" r="2.4"/><circle cx="43" cy="46" r="2.4"/></g>
  </g>
  <g transform="translate(135 203) scale(3.6)">
    <circle cx="32" cy="32" r="32" fill="url(#bg)"/>
    <circle cx="32" cy="32" r="26" fill="none" stroke="#f59e0b" stroke-width="3" stroke-linecap="round" stroke-dasharray="30 11.3" transform="rotate(-58 32 32)"/>
    <polygon fill="url(#zblue)" points="21,18 43,18 43,24 32,40 43,40 43,46 21,46 21,40 32,24 21,24"/>
    <g fill="#dff1ff"><circle cx="21" cy="18" r="2.4"/><circle cx="43" cy="18" r="2.4"/><circle cx="32" cy="32" r="2.4"/><circle cx="21" cy="46" r="2.4"/><circle cx="43" cy="46" r="2.4"/></g>
  </g>
  <path d="M525.08 249.36L496.64 283.08L525.68 283.08L525.68 300L473.72 300L473.72 283.68L501.56 249.96L473.96 249.96L473.96 233.04L525.08 233.04 M564.94 300.96Q555.10 300.96 547.24 296.76Q539.38 292.56 534.88 284.76Q530.38 276.96 530.38 266.52Q530.38 256.20 534.94 248.34Q539.50 240.48 547.42 236.28Q555.34 232.08 565.18 232.08Q575.02 232.08 582.94 236.28Q590.86 240.48 595.42 248.34Q599.98 256.20 599.98 266.52Q599.98 276.84 595.36 284.70Q590.74 292.56 582.76 296.76Q574.78 300.96 564.94 300.96M564.94 283.20Q570.82 283.20 574.96 278.88Q579.10 274.56 579.10 266.52Q579.10 258.48 575.08 254.16Q571.06 249.84 565.18 249.84Q559.18 249.84 555.22 254.10Q551.26 258.36 551.26 266.52Q551.26 274.56 555.16 278.88Q559.06 283.20 564.94 283.20 M618.72 226.08Q613.32 226.08 609.90 222.90Q606.48 219.72 606.48 215.04Q606.48 210.24 609.90 207.06Q613.32 203.88 618.72 203.88Q624 203.88 627.42 207.06Q630.84 210.24 630.84 215.04Q630.84 219.72 627.42 222.90Q624 226.08 618.72 226.08M608.40 233.04L628.92 233.04L628.92 300L608.40 300 M701.32 300.96Q692.56 300.96 685.72 297.96Q678.88 294.96 674.92 289.74Q670.96 284.52 670.48 278.04L690.76 278.04Q691.12 281.52 694 283.68Q696.88 285.84 701.08 285.84Q704.92 285.84 707.02 284.34Q709.12 282.84 709.12 280.44Q709.12 277.56 706.12 276.18Q703.12 274.80 696.40 273.12Q689.20 271.44 684.40 269.58Q679.60 267.72 676.12 263.70Q672.64 259.68 672.64 252.84Q672.64 247.08 675.82 242.34Q679 237.60 685.18 234.84Q691.36 232.08 699.88 232.08Q712.48 232.08 719.74 238.32Q727 244.56 728.08 254.88L709.12 254.88Q708.64 251.40 706.06 249.36Q703.48 247.32 699.28 247.32Q695.68 247.32 693.76 248.70Q691.84 250.08 691.84 252.48Q691.84 255.36 694.90 256.80Q697.96 258.24 704.44 259.68Q711.88 261.60 716.56 263.46Q721.24 265.32 724.78 269.46Q728.32 273.60 728.44 280.56Q728.44 286.44 725.14 291.06Q721.84 295.68 715.66 298.32Q709.48 300.96 701.32 300.96" fill="#eaf2ff"/>
  <path d="M651.50 226.08Q646.10 226.08 642.68 222.90Q639.26 219.72 639.26 215.04Q639.26 210.24 642.68 207.06Q646.10 203.88 651.50 203.88Q656.78 203.88 660.20 207.06Q663.62 210.24 663.62 215.04Q663.62 219.72 660.20 222.90Q656.78 226.08 651.50 226.08M661.82 233.04L661.82 308.64Q661.82 321 655.58 326.46Q649.34 331.92 638.18 331.92L630.14 331.92L630.14 314.52L635.06 314.52Q638.42 314.52 639.86 313.20Q641.30 311.88 641.30 308.88L641.30 233.04" fill="#5cc8ff"/>
  <path d="M495.80 366L493.56 359.80L481.40 359.80L479.16 366L475.32 366L485.40 338.28L489.60 338.28L499.64 366L495.80 366M482.44 356.84L492.52 356.84L487.48 342.76  M523.64 344.08L523.64 347.08L519.04 347.08L519.04 366L515.40 366L515.40 347.08L512.56 347.08L512.56 344.08L515.40 344.08L515.40 342.52Q515.40 338.84 517.30 337.14Q519.20 335.44 523.40 335.44L523.40 338.48Q521 338.48 520.02 339.42Q519.04 340.36 519.04 342.52L519.04 344.08 M531.52 347.64Q532.48 345.76 534.26 344.72Q536.04 343.68 538.60 343.68L538.60 347.44L537.64 347.44Q531.52 347.44 531.52 354.08L531.52 366L527.88 366L527.88 344.08L531.52 344.08 M552.36 366.36Q549.28 366.36 546.78 364.96Q544.28 363.56 542.86 360.98Q541.44 358.40 541.44 355Q541.44 351.64 542.90 349.06Q544.36 346.48 546.88 345.10Q549.40 343.72 552.52 343.72Q555.64 343.72 558.16 345.10Q560.68 346.48 562.14 349.04Q563.60 351.60 563.60 355Q563.60 358.40 562.10 360.98Q560.60 363.56 558.04 364.96Q555.48 366.36 552.36 366.36M552.36 363.16Q554.32 363.16 556.04 362.24Q557.76 361.32 558.82 359.48Q559.88 357.64 559.88 355Q559.88 352.36 558.84 350.52Q557.80 348.68 556.12 347.78Q554.44 346.88 552.48 346.88Q550.48 346.88 548.82 347.78Q547.16 348.68 546.16 350.52Q545.16 352.36 545.16 355Q545.16 357.68 546.14 359.52Q547.12 361.36 548.76 362.26Q550.40 363.16 552.36 363.16 M579.08 343.68Q583.08 343.68 585.56 346.10Q588.04 348.52 588.04 353.08L588.04 366L584.44 366L584.44 353.60Q584.44 350.32 582.80 348.58Q581.16 346.84 578.32 346.84Q575.44 346.84 573.74 348.64Q572.04 350.44 572.04 353.88L572.04 366L568.40 366L568.40 344.08L572.04 344.08L572.04 347.20Q573.12 345.52 574.98 344.60Q576.84 343.68 579.08 343.68 M604.16 347.08L598.44 347.08L598.44 360Q598.44 361.60 599.12 362.26Q599.80 362.92 601.48 362.92L604.16 362.92L604.16 366L600.88 366Q597.84 366 596.32 364.60Q594.80 363.20 594.80 360L594.80 347.08L591.96 347.08L591.96 344.08L594.80 344.08L594.80 338.56L598.44 338.56L598.44 344.08L604.16 344.08 M628.56 354.20Q628.56 355.24 628.44 356.40L610.92 356.40Q611.12 359.64 613.14 361.46Q615.16 363.28 618.04 363.28Q620.40 363.28 621.98 362.18Q623.56 361.08 624.20 359.24L628.12 359.24Q627.24 362.40 624.60 364.38Q621.96 366.36 618.04 366.36Q614.92 366.36 612.46 364.96Q610 363.56 608.60 360.98Q607.20 358.40 607.20 355Q607.20 351.60 608.56 349.04Q609.92 346.48 612.38 345.10Q614.84 343.72 618.04 343.72Q621.16 343.72 623.56 345.08Q625.96 346.44 627.26 348.82Q628.56 351.20 628.56 354.20M624.80 353.44Q624.80 351.36 623.88 349.86Q622.96 348.36 621.38 347.58Q619.80 346.80 617.88 346.80Q615.12 346.80 613.18 348.56Q611.24 350.32 610.96 353.44 M644.04 343.68Q648.04 343.68 650.52 346.10Q653 348.52 653 353.08L653 366L649.40 366L649.40 353.60Q649.40 350.32 647.76 348.58Q646.12 346.84 643.28 346.84Q640.40 346.84 638.70 348.64Q637 350.44 637 353.88L637 366L633.36 366L633.36 344.08L637 344.08L637 347.20Q638.08 345.52 639.94 344.60Q641.80 343.68 644.04 343.68 M657.60 354.96Q657.60 351.60 658.96 349.06Q660.32 346.52 662.70 345.12Q665.08 343.72 668.04 343.72Q670.60 343.72 672.80 344.90Q675 346.08 676.16 348L676.16 336.40L679.84 336.40L679.84 366L676.16 366L676.16 361.88Q675.08 363.84 672.96 365.10Q670.84 366.36 668 366.36Q665.08 366.36 662.70 364.92Q660.32 363.48 658.96 360.88Q657.60 358.28 657.60 354.96M676.16 355Q676.16 352.52 675.16 350.68Q674.16 348.84 672.46 347.86Q670.76 346.88 668.72 346.88Q666.68 346.88 665 347.84Q663.32 348.80 662.32 350.64Q661.32 352.48 661.32 354.96Q661.32 357.48 662.32 359.34Q663.32 361.20 665 362.18Q666.68 363.16 668.72 363.16Q670.76 363.16 672.46 362.18Q674.16 361.20 675.16 359.34Q676.16 357.48 676.16 355  M705.60 344.08L705.60 347.08L701 347.08L701 366L697.36 366L697.36 347.08L694.52 347.08L694.52 344.08L697.36 344.08L697.36 342.52Q697.36 338.84 699.26 337.14Q701.16 335.44 705.36 335.44L705.36 338.48Q702.96 338.48 701.98 339.42Q701 340.36 701 342.52L701 344.08 M713.48 347.64Q714.44 345.76 716.22 344.72Q718 343.68 720.56 343.68L720.56 347.44L719.60 347.44Q713.48 347.44 713.48 354.08L713.48 366L709.84 366L709.84 344.08L713.48 344.08 M723.40 354.96Q723.40 351.60 724.76 349.06Q726.12 346.52 728.50 345.12Q730.88 343.72 733.80 343.72Q736.68 343.72 738.80 344.96Q740.92 346.20 741.96 348.08L741.96 344.08L745.64 344.08L745.64 366L741.96 366L741.96 361.92Q740.88 363.84 738.74 365.10Q736.60 366.36 733.76 366.36Q730.84 366.36 728.48 364.92Q726.12 363.48 724.76 360.88Q723.40 358.28 723.40 354.96M741.96 355Q741.96 352.52 740.96 350.68Q739.96 348.84 738.26 347.86Q736.56 346.88 734.52 346.88Q732.48 346.88 730.80 347.84Q729.12 348.80 728.12 350.64Q727.12 352.48 727.12 354.96Q727.12 357.48 728.12 359.34Q729.12 361.20 730.80 362.18Q732.48 363.16 734.52 363.16Q736.56 363.16 738.26 362.18Q739.96 361.20 740.96 359.34Q741.96 357.48 741.96 355 M778.16 343.68Q780.72 343.68 782.72 344.74Q784.72 345.80 785.88 347.92Q787.04 350.04 787.04 353.08L787.04 366L783.44 366L783.44 353.60Q783.44 350.32 781.82 348.58Q780.20 346.84 777.44 346.84Q774.60 346.84 772.92 348.66Q771.24 350.48 771.24 353.92L771.24 366L767.64 366L767.64 353.60Q767.64 350.32 766.02 348.58Q764.40 346.84 761.64 346.84Q758.80 346.84 757.12 348.66Q755.44 350.48 755.44 353.92L755.44 366L751.80 366L751.80 344.08L755.44 344.08L755.44 347.24Q756.52 345.52 758.34 344.60Q760.16 343.68 762.36 343.68Q765.12 343.68 767.24 344.92Q769.36 346.16 770.40 348.56Q771.32 346.24 773.44 344.96Q775.56 343.68 778.16 343.68 M813 354.20Q813 355.24 812.88 356.40L795.36 356.40Q795.56 359.64 797.58 361.46Q799.60 363.28 802.48 363.28Q804.84 363.28 806.42 362.18Q808 361.08 808.64 359.24L812.56 359.24Q811.68 362.40 809.04 364.38Q806.40 366.36 802.48 366.36Q799.36 366.36 796.90 364.96Q794.44 363.56 793.04 360.98Q791.64 358.40 791.64 355Q791.64 351.60 793 349.04Q794.36 346.48 796.82 345.10Q799.28 343.72 802.48 343.72Q805.60 343.72 808 345.08Q810.40 346.44 811.70 348.82Q813 351.20 813 354.20M809.24 353.44Q809.24 351.36 808.32 349.86Q807.40 348.36 805.82 347.58Q804.24 346.80 802.32 346.80Q799.56 346.80 797.62 348.56Q795.68 350.32 795.40 353.44 M843.40 344.08L847 344.08L840.16 366L836.40 366L831.12 348.60L825.84 366L822.08 366L815.20 344.08L818.92 344.08L823.96 362.48L829.40 344.08L833.12 344.08L838.44 362.52 M860.16 366.36Q857.08 366.36 854.58 364.96Q852.08 363.56 850.66 360.98Q849.24 358.40 849.24 355Q849.24 351.64 850.70 349.06Q852.16 346.48 854.68 345.10Q857.20 343.72 860.32 343.72Q863.44 343.72 865.96 345.10Q868.48 346.48 869.94 349.04Q871.40 351.60 871.40 355Q871.40 358.40 869.90 360.98Q868.40 363.56 865.84 364.96Q863.28 366.36 860.16 366.36M860.16 363.16Q862.12 363.16 863.84 362.24Q865.56 361.32 866.62 359.48Q867.68 357.64 867.68 355Q867.68 352.36 866.64 350.52Q865.60 348.68 863.92 347.78Q862.24 346.88 860.28 346.88Q858.28 346.88 856.62 347.78Q854.96 348.68 853.96 350.52Q852.96 352.36 852.96 355Q852.96 357.68 853.94 359.52Q854.92 361.36 856.56 362.26Q858.20 363.16 860.16 363.16 M879.84 347.64Q880.80 345.76 882.58 344.72Q884.36 343.68 886.92 343.68L886.92 347.44L885.96 347.44Q879.84 347.44 879.84 354.08L879.84 366L876.20 366L876.20 344.08L879.84 344.08 M908.32 366L903.36 366L894.76 356.32L894.76 366L891.12 366L891.12 336.40L894.76 336.40L894.76 353.80L903.20 344.08L908.28 344.08L897.96 355  M937.52 344.08L941.28 344.08L928.08 376.32L924.32 376.32L928.64 365.76L919.80 344.08L923.84 344.08L930.72 361.84 M954.48 366.36Q951.40 366.36 948.90 364.96Q946.40 363.56 944.98 360.98Q943.56 358.40 943.56 355Q943.56 351.64 945.02 349.06Q946.48 346.48 949 345.10Q951.52 343.72 954.64 343.72Q957.76 343.72 960.28 345.10Q962.80 346.48 964.26 349.04Q965.72 351.60 965.72 355Q965.72 358.40 964.22 360.98Q962.72 363.56 960.16 364.96Q957.60 366.36 954.48 366.36M954.48 363.16Q956.44 363.16 958.16 362.24Q959.88 361.32 960.94 359.48Q962 357.64 962 355Q962 352.36 960.96 350.52Q959.92 348.68 958.24 347.78Q956.56 346.88 954.60 346.88Q952.60 346.88 950.94 347.78Q949.28 348.68 948.28 350.52Q947.28 352.36 947.28 355Q947.28 357.68 948.26 359.52Q949.24 361.36 950.88 362.26Q952.52 363.16 954.48 363.16 M986.32 344.08L989.96 344.08L989.96 366L986.32 366L986.32 362.76Q985.28 364.44 983.42 365.38Q981.56 366.32 979.32 366.32Q976.76 366.32 974.72 365.26Q972.68 364.20 971.50 362.08Q970.32 359.96 970.32 356.92L970.32 344.08L973.92 344.08L973.92 356.44Q973.92 359.68 975.56 361.42Q977.20 363.16 980.04 363.16Q982.96 363.16 984.64 361.36Q986.32 359.56 986.32 356.12  M1005.44 354.96Q1005.44 351.60 1006.80 349.06Q1008.16 346.52 1010.54 345.12Q1012.92 343.72 1015.88 343.72Q1018.44 343.72 1020.64 344.90Q1022.84 346.08 1024 348L1024 336.40L1027.68 336.40L1027.68 366L1024 366L1024 361.88Q1022.92 363.84 1020.80 365.10Q1018.68 366.36 1015.84 366.36Q1012.92 366.36 1010.54 364.92Q1008.16 363.48 1006.80 360.88Q1005.44 358.28 1005.44 354.96M1024 355Q1024 352.52 1023 350.68Q1022 348.84 1020.30 347.86Q1018.60 346.88 1016.56 346.88Q1014.52 346.88 1012.84 347.84Q1011.16 348.80 1010.16 350.64Q1009.16 352.48 1009.16 354.96Q1009.16 357.48 1010.16 359.34Q1011.16 361.20 1012.84 362.18Q1014.52 363.16 1016.56 363.16Q1018.60 363.16 1020.30 362.18Q1022 361.20 1023 359.34Q1024 357.48 1024 355 M1043.40 366.36Q1040.32 366.36 1037.82 364.96Q1035.32 363.56 1033.90 360.98Q1032.48 358.40 1032.48 355Q1032.48 351.64 1033.94 349.06Q1035.40 346.48 1037.92 345.10Q1040.44 343.72 1043.56 343.72Q1046.68 343.72 1049.20 345.10Q1051.72 346.48 1053.18 349.04Q1054.64 351.60 1054.64 355Q1054.64 358.40 1053.14 360.98Q1051.64 363.56 1049.08 364.96Q1046.52 366.36 1043.40 366.36M1043.40 363.16Q1045.36 363.16 1047.08 362.24Q1048.80 361.32 1049.86 359.48Q1050.92 357.64 1050.92 355Q1050.92 352.36 1049.88 350.52Q1048.84 348.68 1047.16 347.78Q1045.48 346.88 1043.52 346.88Q1041.52 346.88 1039.86 347.78Q1038.20 348.68 1037.20 350.52Q1036.20 352.36 1036.20 355Q1036.20 357.68 1037.18 359.52Q1038.16 361.36 1039.80 362.26Q1041.44 363.16 1043.40 363.16 M1070.12 343.68Q1074.12 343.68 1076.60 346.10Q1079.08 348.52 1079.08 353.08L1079.08 366L1075.48 366L1075.48 353.60Q1075.48 350.32 1073.84 348.58Q1072.20 346.84 1069.36 346.84Q1066.48 346.84 1064.78 348.64Q1063.08 350.44 1063.08 353.88L1063.08 366L1059.44 366L1059.44 344.08L1063.08 344.08L1063.08 347.20Q1064.16 345.52 1066.02 344.60Q1067.88 343.68 1070.12 343.68 M1083.24 347.20L1085.60 338.12L1089.64 338.12L1085.80 347.20 M1103.96 347.08L1098.24 347.08L1098.24 360Q1098.24 361.60 1098.92 362.26Q1099.60 362.92 1101.28 362.92L1103.96 362.92L1103.96 366L1100.68 366Q1097.64 366 1096.12 364.60Q1094.60 363.20 1094.60 360L1094.60 347.08L1091.76 347.08L1091.76 344.08L1094.60 344.08L1094.60 338.56L1098.24 338.56L1098.24 344.08L1103.96 344.08" fill="#9db4d6"/>
  <path d="M487.96 395.68Q490.44 395.68 492.44 396.74Q494.44 397.80 495.58 399.92Q496.72 402.04 496.72 405.08L496.72 418L493.12 418L493.12 405.60Q493.12 402.32 491.48 400.58Q489.84 398.84 487 398.84Q484.12 398.84 482.42 400.64Q480.72 402.44 480.72 405.88L480.72 418L477.08 418L477.08 388.40L480.72 388.40L480.72 399.20Q481.80 397.52 483.70 396.60Q485.60 395.68 487.96 395.68 M501.32 406.96Q501.32 403.60 502.68 401.06Q504.04 398.52 506.42 397.12Q508.80 395.72 511.72 395.72Q514.60 395.72 516.72 396.96Q518.84 398.20 519.88 400.08L519.88 396.08L523.56 396.08L523.56 418L519.88 418L519.88 413.92Q518.80 415.84 516.66 417.10Q514.52 418.36 511.68 418.36Q508.76 418.36 506.40 416.92Q504.04 415.48 502.68 412.88Q501.32 410.28 501.32 406.96M519.88 407Q519.88 404.52 518.88 402.68Q517.88 400.84 516.18 399.86Q514.48 398.88 512.44 398.88Q510.40 398.88 508.72 399.84Q507.04 400.80 506.04 402.64Q505.04 404.48 505.04 406.96Q505.04 409.48 506.04 411.34Q507.04 413.20 508.72 414.18Q510.40 415.16 512.44 415.16Q514.48 415.16 516.18 414.18Q517.88 413.20 518.88 411.34Q519.88 409.48 519.88 407 M531.04 396.08L537.88 414.64L544.68 396.08L548.56 396.08L539.96 418L535.72 418L527.12 396.08 M572.16 406.20Q572.16 407.24 572.04 408.40L554.52 408.40Q554.72 411.64 556.74 413.46Q558.76 415.28 561.64 415.28Q564 415.28 565.58 414.18Q567.16 413.08 567.80 411.24L571.72 411.24Q570.84 414.40 568.20 416.38Q565.56 418.36 561.64 418.36Q558.52 418.36 556.06 416.96Q553.60 415.56 552.20 412.98Q550.80 410.40 550.80 407Q550.80 403.60 552.16 401.04Q553.52 398.48 555.98 397.10Q558.44 395.72 561.64 395.72Q564.76 395.72 567.16 397.08Q569.56 398.44 570.86 400.82Q572.16 403.20 572.16 406.20M568.40 405.44Q568.40 403.36 567.48 401.86Q566.56 400.36 564.98 399.58Q563.40 398.80 561.48 398.80Q558.72 398.80 556.78 400.56Q554.84 402.32 554.56 405.44  M597.80 399.08L592.08 399.08L592.08 412Q592.08 413.60 592.76 414.26Q593.44 414.92 595.12 414.92L597.80 414.92L597.80 418L594.52 418Q591.48 418 589.96 416.60Q588.44 415.20 588.44 412L588.44 399.08L585.60 399.08L585.60 396.08L588.44 396.08L588.44 390.56L592.08 390.56L592.08 396.08L597.80 396.08 M611.76 418.36Q608.68 418.36 606.18 416.96Q603.68 415.56 602.26 412.98Q600.84 410.40 600.84 407Q600.84 403.64 602.30 401.06Q603.76 398.48 606.28 397.10Q608.80 395.72 611.92 395.72Q615.04 395.72 617.56 397.10Q620.08 398.48 621.54 401.04Q623 403.60 623 407Q623 410.40 621.50 412.98Q620 415.56 617.44 416.96Q614.88 418.36 611.76 418.36M611.76 415.16Q613.72 415.16 615.44 414.24Q617.16 413.32 618.22 411.48Q619.28 409.64 619.28 407Q619.28 404.36 618.24 402.52Q617.20 400.68 615.52 399.78Q613.84 398.88 611.88 398.88Q609.88 398.88 608.22 399.78Q606.56 400.68 605.56 402.52Q604.56 404.36 604.56 407Q604.56 409.68 605.54 411.52Q606.52 413.36 608.16 414.26Q609.80 415.16 611.76 415.16  M638.48 388.40L642.12 388.40L642.12 418L638.48 418 M668.32 406.20Q668.32 407.24 668.20 408.40L650.68 408.40Q650.88 411.64 652.90 413.46Q654.92 415.28 657.80 415.28Q660.16 415.28 661.74 414.18Q663.32 413.08 663.96 411.24L667.88 411.24Q667 414.40 664.36 416.38Q661.72 418.36 657.80 418.36Q654.68 418.36 652.22 416.96Q649.76 415.56 648.36 412.98Q646.96 410.40 646.96 407Q646.96 403.60 648.32 401.04Q649.68 398.48 652.14 397.10Q654.60 395.72 657.80 395.72Q660.92 395.72 663.32 397.08Q665.72 398.44 667.02 400.82Q668.32 403.20 668.32 406.20M664.56 405.44Q664.56 403.36 663.64 401.86Q662.72 400.36 661.14 399.58Q659.56 398.80 657.64 398.80Q654.88 398.80 652.94 400.56Q651 402.32 650.72 405.44 M671.76 406.96Q671.76 403.60 673.12 401.06Q674.48 398.52 676.86 397.12Q679.24 395.72 682.16 395.72Q685.04 395.72 687.16 396.96Q689.28 398.20 690.32 400.08L690.32 396.08L694 396.08L694 418L690.32 418L690.32 413.92Q689.24 415.84 687.10 417.10Q684.96 418.36 682.12 418.36Q679.20 418.36 676.84 416.92Q674.48 415.48 673.12 412.88Q671.76 410.28 671.76 406.96M690.32 407Q690.32 404.52 689.32 402.68Q688.32 400.84 686.62 399.86Q684.92 398.88 682.88 398.88Q680.84 398.88 679.16 399.84Q677.48 400.80 676.48 402.64Q675.48 404.48 675.48 406.96Q675.48 409.48 676.48 411.34Q677.48 413.20 679.16 414.18Q680.84 415.16 682.88 415.16Q684.92 415.16 686.62 414.18Q688.32 413.20 689.32 411.34Q690.32 409.48 690.32 407 M703.80 399.64Q704.76 397.76 706.54 396.72Q708.32 395.68 710.88 395.68L710.88 399.44L709.92 399.44Q703.80 399.44 703.80 406.08L703.80 418L700.16 418L700.16 396.08L703.80 396.08 M725.76 395.68Q729.76 395.68 732.24 398.10Q734.72 400.52 734.72 405.08L734.72 418L731.12 418L731.12 405.60Q731.12 402.32 729.48 400.58Q727.84 398.84 725 398.84Q722.12 398.84 720.42 400.64Q718.72 402.44 718.72 405.88L718.72 418L715.08 418L715.08 396.08L718.72 396.08L718.72 399.20Q719.80 397.52 721.66 396.60Q723.52 395.68 725.76 395.68  M755 400.16Q756.12 398.20 758.28 396.96Q760.44 395.72 763.20 395.72Q766.16 395.72 768.52 397.12Q770.88 398.52 772.24 401.06Q773.60 403.60 773.60 406.96Q773.60 410.28 772.24 412.88Q770.88 415.48 768.50 416.92Q766.12 418.36 763.20 418.36Q760.36 418.36 758.22 417.12Q756.08 415.88 755 413.96L755 418L751.36 418L751.36 388.40L755 388.40L755 400.16M769.88 406.96Q769.88 404.48 768.88 402.64Q767.88 400.80 766.18 399.84Q764.48 398.88 762.44 398.88Q760.44 398.88 758.74 399.86Q757.04 400.84 756.02 402.70Q755 404.56 755 407Q755 409.48 756.02 411.34Q757.04 413.20 758.74 414.18Q760.44 415.16 762.44 415.16Q764.48 415.16 766.18 414.18Q767.88 413.20 768.88 411.34Q769.88 409.48 769.88 406.96 M798.40 406.20Q798.40 407.24 798.28 408.40L780.76 408.40Q780.96 411.64 782.98 413.46Q785 415.28 787.88 415.28Q790.24 415.28 791.82 414.18Q793.40 413.08 794.04 411.24L797.96 411.24Q797.08 414.40 794.44 416.38Q791.80 418.36 787.88 418.36Q784.76 418.36 782.30 416.96Q779.84 415.56 778.44 412.98Q777.04 410.40 777.04 407Q777.04 403.60 778.40 401.04Q779.76 398.48 782.22 397.10Q784.68 395.72 787.88 395.72Q791 395.72 793.40 397.08Q795.80 398.44 797.10 400.82Q798.40 403.20 798.40 406.20M794.64 405.44Q794.64 403.36 793.72 401.86Q792.80 400.36 791.22 399.58Q789.64 398.80 787.72 398.80Q784.96 398.80 783.02 400.56Q781.08 402.32 780.80 405.44 M812.12 396.08L812.12 399.08L807.52 399.08L807.52 418L803.88 418L803.88 399.08L801.04 399.08L801.04 396.08L803.88 396.08L803.88 394.52Q803.88 390.84 805.78 389.14Q807.68 387.44 811.88 387.44L811.88 390.48Q809.48 390.48 808.50 391.42Q807.52 392.36 807.52 394.52L807.52 396.08 M825.92 418.36Q822.84 418.36 820.34 416.96Q817.84 415.56 816.42 412.98Q815 410.40 815 407Q815 403.64 816.46 401.06Q817.92 398.48 820.44 397.10Q822.96 395.72 826.08 395.72Q829.20 395.72 831.72 397.10Q834.24 398.48 835.70 401.04Q837.16 403.60 837.16 407Q837.16 410.40 835.66 412.98Q834.16 415.56 831.60 416.96Q829.04 418.36 825.92 418.36M825.92 415.16Q827.88 415.16 829.60 414.24Q831.32 413.32 832.38 411.48Q833.44 409.64 833.44 407Q833.44 404.36 832.40 402.52Q831.36 400.68 829.68 399.78Q828 398.88 826.04 398.88Q824.04 398.88 822.38 399.78Q820.72 400.68 819.72 402.52Q818.72 404.36 818.72 407Q818.72 409.68 819.70 411.52Q820.68 413.36 822.32 414.26Q823.96 415.16 825.92 415.16 M845.60 399.64Q846.56 397.76 848.34 396.72Q850.12 395.68 852.68 395.68L852.68 399.44L851.72 399.44Q845.60 399.44 845.60 406.08L845.60 418L841.96 418L841.96 396.08L845.60 396.08 M876.88 406.20Q876.88 407.24 876.76 408.40L859.24 408.40Q859.44 411.64 861.46 413.46Q863.48 415.28 866.36 415.28Q868.72 415.28 870.30 414.18Q871.88 413.08 872.52 411.24L876.44 411.24Q875.56 414.40 872.92 416.38Q870.28 418.36 866.36 418.36Q863.24 418.36 860.78 416.96Q858.32 415.56 856.92 412.98Q855.52 410.40 855.52 407Q855.52 403.60 856.88 401.04Q858.24 398.48 860.70 397.10Q863.16 395.72 866.36 395.72Q869.48 395.72 871.88 397.08Q874.28 398.44 875.58 400.82Q876.88 403.20 876.88 406.20M873.12 405.44Q873.12 403.36 872.20 401.86Q871.28 400.36 869.70 399.58Q868.12 398.80 866.20 398.80Q863.44 398.80 861.50 400.56Q859.56 402.32 859.28 405.44  M907.48 396.08L911.24 396.08L898.04 428.32L894.28 428.32L898.60 417.76L889.76 396.08L893.80 396.08L900.68 413.84 M924.44 418.36Q921.36 418.36 918.86 416.96Q916.36 415.56 914.94 412.98Q913.52 410.40 913.52 407Q913.52 403.64 914.98 401.06Q916.44 398.48 918.96 397.10Q921.48 395.72 924.60 395.72Q927.72 395.72 930.24 397.10Q932.76 398.48 934.22 401.04Q935.68 403.60 935.68 407Q935.68 410.40 934.18 412.98Q932.68 415.56 930.12 416.96Q927.56 418.36 924.44 418.36M924.44 415.16Q926.40 415.16 928.12 414.24Q929.84 413.32 930.90 411.48Q931.96 409.64 931.96 407Q931.96 404.36 930.92 402.52Q929.88 400.68 928.20 399.78Q926.52 398.88 924.56 398.88Q922.56 398.88 920.90 399.78Q919.24 400.68 918.24 402.52Q917.24 404.36 917.24 407Q917.24 409.68 918.22 411.52Q919.20 413.36 920.84 414.26Q922.48 415.16 924.44 415.16 M956.28 396.08L959.92 396.08L959.92 418L956.28 418L956.28 414.76Q955.24 416.44 953.38 417.38Q951.52 418.32 949.28 418.32Q946.72 418.32 944.68 417.26Q942.64 416.20 941.46 414.08Q940.28 411.96 940.28 408.92L940.28 396.08L943.88 396.08L943.88 408.44Q943.88 411.68 945.52 413.42Q947.16 415.16 950 415.16Q952.92 415.16 954.60 413.36Q956.28 411.56 956.28 408.12  M992.56 396.08L996.20 396.08L996.20 418L992.56 418L992.56 414.76Q991.52 416.44 989.66 417.38Q987.80 418.32 985.56 418.32Q983 418.32 980.96 417.26Q978.92 416.20 977.74 414.08Q976.56 411.96 976.56 408.92L976.56 396.08L980.16 396.08L980.16 408.44Q980.16 411.68 981.80 413.42Q983.44 415.16 986.28 415.16Q989.20 415.16 990.88 413.36Q992.56 411.56 992.56 408.12 M1010.12 418.36Q1007.60 418.36 1005.60 417.50Q1003.60 416.64 1002.44 415.10Q1001.28 413.56 1001.16 411.56L1004.92 411.56Q1005.08 413.20 1006.46 414.24Q1007.84 415.28 1010.08 415.28Q1012.16 415.28 1013.36 414.36Q1014.56 413.44 1014.56 412.04Q1014.56 410.60 1013.28 409.90Q1012 409.20 1009.32 408.52Q1006.88 407.88 1005.34 407.22Q1003.80 406.56 1002.70 405.26Q1001.60 403.96 1001.60 401.84Q1001.60 400.16 1002.60 398.76Q1003.60 397.36 1005.44 396.54Q1007.28 395.72 1009.64 395.72Q1013.28 395.72 1015.52 397.56Q1017.76 399.40 1017.92 402.60L1014.28 402.60Q1014.16 400.88 1012.90 399.84Q1011.64 398.80 1009.52 398.80Q1007.56 398.80 1006.40 399.64Q1005.24 400.48 1005.24 401.84Q1005.24 402.92 1005.94 403.62Q1006.64 404.32 1007.70 404.74Q1008.76 405.16 1010.64 405.68Q1013 406.32 1014.48 406.94Q1015.96 407.56 1017.02 408.80Q1018.08 410.04 1018.12 412.04Q1018.12 413.84 1017.12 415.28Q1016.12 416.72 1014.30 417.54Q1012.48 418.36 1010.12 418.36 M1043.24 406.20Q1043.24 407.24 1043.12 408.40L1025.60 408.40Q1025.80 411.64 1027.82 413.46Q1029.84 415.28 1032.72 415.28Q1035.08 415.28 1036.66 414.18Q1038.24 413.08 1038.88 411.24L1042.80 411.24Q1041.92 414.40 1039.28 416.38Q1036.64 418.36 1032.72 418.36Q1029.60 418.36 1027.14 416.96Q1024.68 415.56 1023.28 412.98Q1021.88 410.40 1021.88 407Q1021.88 403.60 1023.24 401.04Q1024.60 398.48 1027.06 397.10Q1029.52 395.72 1032.72 395.72Q1035.84 395.72 1038.24 397.08Q1040.64 398.44 1041.94 400.82Q1043.24 403.20 1043.24 406.20M1039.48 405.44Q1039.48 403.36 1038.56 401.86Q1037.64 400.36 1036.06 399.58Q1034.48 398.80 1032.56 398.80Q1029.80 398.80 1027.86 400.56Q1025.92 402.32 1025.64 405.44  M1060.60 392.52Q1059.56 392.52 1058.84 391.80Q1058.12 391.08 1058.12 390.04Q1058.12 389 1058.84 388.28Q1059.56 387.56 1060.60 387.56Q1061.60 387.56 1062.30 388.28Q1063 389 1063 390.04Q1063 391.08 1062.30 391.80Q1061.60 392.52 1060.60 392.52M1058.72 396.08L1062.36 396.08L1062.36 418L1058.72 418 M1078.72 399.08L1073 399.08L1073 412Q1073 413.60 1073.68 414.26Q1074.36 414.92 1076.04 414.92L1078.72 414.92L1078.72 418L1075.44 418Q1072.40 418 1070.88 416.60Q1069.36 415.20 1069.36 412L1069.36 399.08L1066.52 399.08L1066.52 396.08L1069.36 396.08L1069.36 390.56L1073 390.56L1073 396.08L1078.72 396.08 M1084.28 418.24Q1083.24 418.24 1082.52 417.52Q1081.80 416.80 1081.80 415.76Q1081.80 414.72 1082.52 414Q1083.24 413.28 1084.28 413.28Q1085.28 413.28 1085.98 414Q1086.68 414.72 1086.68 415.76Q1086.68 416.80 1085.98 417.52Q1085.28 418.24 1084.28 418.24" fill="#9db4d6"/>
  <path d="M493.38 477.12L493.38 498L489.96 498L479.67 482.43L479.67 498L476.25 498L476.25 477.12L479.67 477.12L489.96 492.66L489.96 477.12 M505.05 498.27Q502.71 498.27 500.82 497.20Q498.93 496.14 497.85 494.20Q496.77 492.27 496.77 489.72Q496.77 487.20 497.88 485.25Q498.99 483.30 500.91 482.25Q502.83 481.20 505.20 481.20Q507.57 481.20 509.49 482.25Q511.41 483.30 512.52 485.25Q513.63 487.20 513.63 489.72Q513.63 492.24 512.49 494.19Q511.35 496.14 509.38 497.20Q507.42 498.27 505.05 498.27M505.05 495.30Q506.37 495.30 507.52 494.67Q508.68 494.04 509.40 492.78Q510.12 491.52 510.12 489.72Q510.12 487.92 509.43 486.68Q508.74 485.43 507.60 484.80Q506.46 484.17 505.14 484.17Q503.82 484.17 502.69 484.80Q501.57 485.43 500.91 486.68Q500.25 487.92 500.25 489.72Q500.25 492.39 501.62 493.85Q502.98 495.30 505.05 495.30  M532.74 477.15L536.19 477.15L536.19 492.18Q536.19 494.97 534.49 496.59Q532.80 498.21 530.04 498.21Q527.28 498.21 525.58 496.59Q523.89 494.97 523.89 492.18L527.34 492.18Q527.37 493.56 528.04 494.37Q528.72 495.18 530.04 495.18Q531.36 495.18 532.05 494.36Q532.74 493.53 532.74 492.18 M548.61 498.21Q546.51 498.21 544.83 497.48Q543.15 496.74 542.19 495.39Q541.23 494.04 541.23 492.24L544.89 492.24Q545.01 493.59 545.95 494.46Q546.90 495.33 548.61 495.33Q550.38 495.33 551.37 494.48Q552.36 493.62 552.36 492.27Q552.36 491.22 551.74 490.56Q551.13 489.90 550.21 489.54Q549.30 489.18 547.68 488.76Q545.64 488.22 544.36 487.67Q543.09 487.11 542.19 485.94Q541.29 484.77 541.29 482.82Q541.29 481.02 542.19 479.67Q543.09 478.32 544.71 477.60Q546.33 476.88 548.46 476.88Q551.49 476.88 553.42 478.39Q555.36 479.91 555.57 482.55L551.79 482.55Q551.70 481.41 550.71 480.60Q549.72 479.79 548.10 479.79Q546.63 479.79 545.70 480.54Q544.77 481.29 544.77 482.70Q544.77 483.66 545.35 484.27Q545.94 484.89 546.84 485.25Q547.74 485.61 549.30 486.03Q551.37 486.60 552.67 487.17Q553.98 487.74 554.89 488.93Q555.81 490.11 555.81 492.09Q555.81 493.68 554.95 495.09Q554.10 496.50 552.46 497.36Q550.83 498.21 548.61 498.21 M575.94 477.15L569.43 487.59L575.91 498L572.07 498L567.36 490.44L562.95 498L559.14 498L565.62 487.59L559.11 477.15L562.95 477.15L567.69 484.77L572.13 477.15  M588.96 490.14Q588.03 490.14 587.40 489.51Q586.77 488.88 586.77 487.95Q586.77 487.02 587.40 486.39Q588.03 485.76 588.96 485.76Q589.86 485.76 590.49 486.39Q591.12 487.02 591.12 487.95Q591.12 488.88 590.49 489.51Q589.86 490.14 588.96 490.14  M619.71 477.12L619.71 498L616.29 498L606 482.43L606 498L602.58 498L602.58 477.12L606 477.12L616.29 492.66L616.29 477.12 M631.38 498.27Q629.04 498.27 627.15 497.20Q625.26 496.14 624.18 494.20Q623.10 492.27 623.10 489.72Q623.10 487.20 624.21 485.25Q625.32 483.30 627.24 482.25Q629.16 481.20 631.53 481.20Q633.90 481.20 635.82 482.25Q637.74 483.30 638.85 485.25Q639.96 487.20 639.96 489.72Q639.96 492.24 638.82 494.19Q637.68 496.14 635.71 497.20Q633.75 498.27 631.38 498.27M631.38 495.30Q632.70 495.30 633.85 494.67Q635.01 494.04 635.73 492.78Q636.45 491.52 636.45 489.72Q636.45 487.92 635.76 486.68Q635.07 485.43 633.93 484.80Q632.79 484.17 631.47 484.17Q630.15 484.17 629.02 484.80Q627.90 485.43 627.24 486.68Q626.58 487.92 626.58 489.72Q626.58 492.39 627.94 493.85Q629.31 495.30 631.38 495.30  M654.57 483.93Q655.44 482.73 656.95 481.96Q658.47 481.20 660.33 481.20Q662.52 481.20 664.29 482.25Q666.06 483.30 667.08 485.24Q668.10 487.17 668.10 489.66Q668.10 492.15 667.08 494.12Q666.06 496.08 664.27 497.18Q662.49 498.27 660.33 498.27Q658.41 498.27 656.92 497.52Q655.44 496.77 654.57 495.60L654.57 498L651.15 498L651.15 475.80L654.57 475.80L654.57 483.93M664.62 489.66Q664.62 487.95 663.91 486.70Q663.21 485.46 662.05 484.81Q660.90 484.17 659.58 484.17Q658.29 484.17 657.13 484.83Q655.98 485.49 655.27 486.75Q654.57 488.01 654.57 489.72Q654.57 491.43 655.27 492.70Q655.98 493.98 657.13 494.64Q658.29 495.30 659.58 495.30Q660.90 495.30 662.05 494.63Q663.21 493.95 663.91 492.66Q664.62 491.37 664.62 489.66 M683.04 481.47L686.46 481.47L686.46 498L683.04 498L683.04 496.05Q682.23 497.07 680.92 497.65Q679.62 498.24 678.15 498.24Q676.20 498.24 674.65 497.43Q673.11 496.62 672.22 495.03Q671.34 493.44 671.34 491.19L671.34 481.47L674.73 481.47L674.73 490.68Q674.73 492.90 675.84 494.08Q676.95 495.27 678.87 495.27Q680.79 495.27 681.91 494.08Q683.04 492.90 683.04 490.68 M692.70 479.28Q691.77 479.28 691.14 478.65Q690.51 478.02 690.51 477.09Q690.51 476.16 691.14 475.53Q691.77 474.90 692.70 474.90Q693.60 474.90 694.23 475.53Q694.86 476.16 694.86 477.09Q694.86 478.02 694.23 478.65Q693.60 479.28 692.70 479.28M690.96 481.47L694.38 481.47L694.38 498L690.96 498 M698.88 475.80L702.30 475.80L702.30 498L698.88 498 M705.66 489.66Q705.66 487.17 706.69 485.25Q707.73 483.33 709.51 482.26Q711.30 481.20 713.49 481.20Q715.11 481.20 716.68 481.90Q718.26 482.61 719.19 483.78L719.19 475.80L722.64 475.80L722.64 498L719.19 498L719.19 495.51Q718.35 496.71 716.86 497.49Q715.38 498.27 713.46 498.27Q711.30 498.27 709.51 497.18Q707.73 496.08 706.69 494.12Q705.66 492.15 705.66 489.66M719.19 489.72Q719.19 488.01 718.48 486.75Q717.78 485.49 716.64 484.83Q715.50 484.17 714.18 484.17Q712.86 484.17 711.72 484.81Q710.58 485.46 709.87 486.70Q709.17 487.95 709.17 489.66Q709.17 491.37 709.87 492.66Q710.58 493.95 711.73 494.63Q712.89 495.30 714.18 495.30Q715.50 495.30 716.64 494.64Q717.78 493.98 718.48 492.70Q719.19 491.43 719.19 489.72  M740.94 498.27Q738.99 498.27 737.44 497.56Q735.90 496.86 735 495.64Q734.10 494.43 734.04 492.93L737.58 492.93Q737.67 493.98 738.58 494.69Q739.50 495.39 740.88 495.39Q742.32 495.39 743.11 494.83Q743.91 494.28 743.91 493.41Q743.91 492.48 743.02 492.03Q742.14 491.58 740.22 491.04Q738.36 490.53 737.19 490.05Q736.02 489.57 735.16 488.58Q734.31 487.59 734.31 485.97Q734.31 484.65 735.09 483.56Q735.87 482.46 737.32 481.83Q738.78 481.20 740.67 481.20Q743.49 481.20 745.21 482.63Q746.94 484.05 747.06 486.51L743.64 486.51Q743.55 485.40 742.74 484.74Q741.93 484.08 740.55 484.08Q739.20 484.08 738.48 484.59Q737.76 485.10 737.76 485.94Q737.76 486.60 738.24 487.05Q738.72 487.50 739.41 487.75Q740.10 488.01 741.45 488.40Q743.25 488.88 744.40 489.38Q745.56 489.87 746.40 490.83Q747.24 491.79 747.27 493.38Q747.27 494.79 746.49 495.90Q745.71 497.01 744.28 497.64Q742.86 498.27 740.94 498.27 M758.97 484.26L754.95 484.26L754.95 493.41Q754.95 494.34 755.38 494.75Q755.82 495.15 756.87 495.15L758.97 495.15L758.97 498L756.27 498Q753.96 498 752.73 496.92Q751.50 495.84 751.50 493.41L751.50 484.26L749.55 484.26L749.55 481.47L751.50 481.47L751.50 477.36L754.95 477.36L754.95 481.47L758.97 481.47 M777.27 489.33Q777.27 490.26 777.15 491.01L764.52 491.01Q764.67 492.99 765.99 494.19Q767.31 495.39 769.23 495.39Q771.99 495.39 773.13 493.08L776.82 493.08Q776.07 495.36 774.10 496.81Q772.14 498.27 769.23 498.27Q766.86 498.27 764.98 497.20Q763.11 496.14 762.04 494.20Q760.98 492.27 760.98 489.72Q760.98 487.17 762.01 485.24Q763.05 483.30 764.92 482.25Q766.80 481.20 769.23 481.20Q771.57 481.20 773.40 482.22Q775.23 483.24 776.25 485.08Q777.27 486.93 777.27 489.33M764.55 488.25L773.70 488.25Q773.67 486.36 772.35 485.22Q771.03 484.08 769.08 484.08Q767.31 484.08 766.05 485.20Q764.79 486.33 764.55 488.25 M784.05 483.90Q784.92 482.76 786.42 481.98Q787.92 481.20 789.81 481.20Q791.97 481.20 793.75 482.26Q795.54 483.33 796.56 485.25Q797.58 487.17 797.58 489.66Q797.58 492.15 796.56 494.12Q795.54 496.08 793.75 497.18Q791.97 498.27 789.81 498.27Q787.92 498.27 786.45 497.50Q784.98 496.74 784.05 495.60L784.05 505.86L780.63 505.86L780.63 481.47L784.05 481.47L784.05 483.90M794.10 489.66Q794.10 487.95 793.39 486.70Q792.69 485.46 791.53 484.81Q790.38 484.17 789.06 484.17Q787.77 484.17 786.61 484.83Q785.46 485.49 784.75 486.75Q784.05 488.01 784.05 489.72Q784.05 491.43 784.75 492.70Q785.46 493.98 786.61 494.64Q787.77 495.30 789.06 495.30Q790.38 495.30 791.53 494.63Q792.69 493.95 793.39 492.66Q794.10 491.37 794.10 489.66  M810.27 490.14Q809.34 490.14 808.71 489.51Q808.08 488.88 808.08 487.95Q808.08 487.02 808.71 486.39Q809.34 485.76 810.27 485.76Q811.17 485.76 811.80 486.39Q812.43 487.02 812.43 487.95Q812.43 488.88 811.80 489.51Q811.17 490.14 810.27 490.14  M841.02 477.12L841.02 498L837.60 498L827.31 482.43L827.31 498L823.89 498L823.89 477.12L827.31 477.12L837.60 492.66L837.60 477.12 M852.69 498.27Q850.35 498.27 848.46 497.20Q846.57 496.14 845.49 494.20Q844.41 492.27 844.41 489.72Q844.41 487.20 845.52 485.25Q846.63 483.30 848.55 482.25Q850.47 481.20 852.84 481.20Q855.21 481.20 857.13 482.25Q859.05 483.30 860.16 485.25Q861.27 487.20 861.27 489.72Q861.27 492.24 860.13 494.19Q858.99 496.14 857.02 497.20Q855.06 498.27 852.69 498.27M852.69 495.30Q854.01 495.30 855.16 494.67Q856.32 494.04 857.04 492.78Q857.76 491.52 857.76 489.72Q857.76 487.92 857.07 486.68Q856.38 485.43 855.24 484.80Q854.10 484.17 852.78 484.17Q851.46 484.17 850.33 484.80Q849.21 485.43 848.55 486.68Q847.89 487.92 847.89 489.72Q847.89 492.39 849.25 493.85Q850.62 495.30 852.69 495.30  M886.83 477.15L890.43 477.15L882.60 498L878.64 498L870.78 477.15L874.44 477.15L880.62 494.49 M895.02 479.28Q894.09 479.28 893.46 478.65Q892.83 478.02 892.83 477.09Q892.83 476.16 893.46 475.53Q894.09 474.90 895.02 474.90Q895.92 474.90 896.55 475.53Q897.18 476.16 897.18 477.09Q897.18 478.02 896.55 478.65Q895.92 479.28 895.02 479.28M893.28 481.47L896.70 481.47L896.70 498L893.28 498 M904.62 483.87Q905.37 482.61 906.61 481.90Q907.86 481.20 909.57 481.20L909.57 484.74L908.70 484.74Q906.69 484.74 905.65 485.76Q904.62 486.78 904.62 489.30L904.62 498L901.20 498L901.20 481.47L904.62 481.47 M920.73 484.26L916.71 484.26L916.71 493.41Q916.71 494.34 917.14 494.75Q917.58 495.15 918.63 495.15L920.73 495.15L920.73 498L918.03 498Q915.72 498 914.49 496.92Q913.26 495.84 913.26 493.41L913.26 484.26L911.31 484.26L911.31 481.47L913.26 481.47L913.26 477.36L916.71 477.36L916.71 481.47L920.73 481.47 M935.43 481.47L938.85 481.47L938.85 498L935.43 498L935.43 496.05Q934.62 497.07 933.31 497.65Q932.01 498.24 930.54 498.24Q928.59 498.24 927.04 497.43Q925.50 496.62 924.61 495.03Q923.73 493.44 923.73 491.19L923.73 481.47L927.12 481.47L927.12 490.68Q927.12 492.90 928.23 494.08Q929.34 495.27 931.26 495.27Q933.18 495.27 934.30 494.08Q935.43 492.90 935.43 490.68 M942.21 489.66Q942.21 487.17 943.24 485.25Q944.28 483.33 946.06 482.26Q947.85 481.20 950.01 481.20Q951.96 481.20 953.41 481.96Q954.87 482.73 955.74 483.87L955.74 481.47L959.19 481.47L959.19 498L955.74 498L955.74 495.54Q954.87 496.71 953.37 497.49Q951.87 498.27 949.95 498.27Q947.82 498.27 946.05 497.18Q944.28 496.08 943.24 494.12Q942.21 492.15 942.21 489.66M955.74 489.72Q955.74 488.01 955.03 486.75Q954.33 485.49 953.19 484.83Q952.05 484.17 950.73 484.17Q949.41 484.17 948.27 484.81Q947.13 485.46 946.42 486.70Q945.72 487.95 945.72 489.66Q945.72 491.37 946.42 492.66Q947.13 493.95 948.28 494.63Q949.44 495.30 950.73 495.30Q952.05 495.30 953.19 494.64Q954.33 493.98 955.03 492.70Q955.74 491.43 955.74 489.72 M963.69 475.80L967.11 475.80L967.11 498L963.69 498  M986.22 477.15Q989.55 477.15 992.05 478.43Q994.56 479.70 995.92 482.08Q997.29 484.47 997.29 487.65Q997.29 490.83 995.92 493.17Q994.56 495.51 992.05 496.75Q989.55 498 986.22 498L979.41 498L979.41 477.15L986.22 477.15M986.22 495.21Q989.88 495.21 991.83 493.23Q993.78 491.25 993.78 487.65Q993.78 484.02 991.83 481.98Q989.88 479.94 986.22 479.94L982.83 479.94L982.83 495.21 M1010.19 498.21Q1007.28 498.21 1004.83 496.85Q1002.39 495.48 1000.96 493.04Q999.54 490.59 999.54 487.53Q999.54 484.47 1000.96 482.04Q1002.39 479.61 1004.83 478.25Q1007.28 476.88 1010.19 476.88Q1013.13 476.88 1015.57 478.25Q1018.02 479.61 1019.43 482.04Q1020.84 484.47 1020.84 487.53Q1020.84 490.59 1019.43 493.04Q1018.02 495.48 1015.57 496.85Q1013.13 498.21 1010.19 498.21M1010.19 495.24Q1012.26 495.24 1013.88 494.30Q1015.50 493.35 1016.41 491.60Q1017.33 489.84 1017.33 487.53Q1017.33 485.22 1016.41 483.48Q1015.50 481.74 1013.88 480.81Q1012.26 479.88 1010.19 479.88Q1008.12 479.88 1006.50 480.81Q1004.88 481.74 1003.96 483.48Q1003.05 485.22 1003.05 487.53Q1003.05 489.84 1003.96 491.60Q1004.88 493.35 1006.50 494.30Q1008.12 495.24 1010.19 495.24 M1042.50 477.15L1046.16 477.15L1046.16 498L1042.74 498L1042.74 483.72L1036.38 498L1034.01 498L1027.62 483.72L1027.62 498L1024.20 498L1024.20 477.15L1027.89 477.15L1035.21 493.50" fill="#f59e0b"/>
</svg>
